<svg width="334" height="326" viewBox="0 0 334 326" fill="none" xmlns="http://www.w3.org/2000/svg">
<path d="M167 0.333496C145.113 0.333496 123.44 4.64446 103.219 13.0202C82.9982 21.396 64.625 33.6726 49.1485 49.149C17.8925 80.4051 0.333008 122.797 0.333008 167C0.333008 240.667 48.1663 303.167 114.333 325.333C122.666 326.667 125.333 321.5 125.333 317V288.833C79.1663 298.833 69.333 266.5 69.333 266.5C61.6663 247.167 50.833 242 50.833 242C35.6663 231.667 51.9997 232 51.9997 232C68.6663 233.167 77.4997 249.167 77.4997 249.167C91.9997 274.5 116.5 267 126 263C127.5 252.167 131.833 244.833 136.5 240.667C99.4997 236.5 60.6663 222.167 60.6663 158.667C60.6663 140.167 66.9997 125.333 77.833 113.5C76.1663 109.333 70.333 92.0002 79.4997 69.5002C79.4997 69.5002 93.4997 65.0002 125.333 86.5002C138.5 82.8335 152.833 81.0002 167 81.0002C181.166 81.0002 195.5 82.8335 208.666 86.5002C240.5 65.0002 254.5 69.5002 254.5 69.5002C263.666 92.0002 257.833 109.333 256.166 113.5C267 125.333 273.333 140.167 273.333 158.667C273.333 222.333 234.333 236.333 197.166 240.5C203.166 245.667 208.666 255.833 208.666 271.333V317C208.666 321.5 211.333 326.833 219.833 325.333C286 303 333.666 240.667 333.666 167C333.666 145.113 329.355 123.441 320.98 103.22C312.604 82.9987 300.327 64.6255 284.851 49.149C269.374 33.6726 251.001 21.396 230.78 13.0202C210.559 4.64446 188.887 0.333496 167 0.333496Z" fill="white"/>
</svg>
