<svg width="300" height="300" viewBox="0 0 300 300" fill="none" xmlns="http://www.w3.org/2000/svg">
<path d="M266.667 0C275.507 0 283.986 3.51189 290.237 9.76311C296.488 16.0143 300 24.4928 300 33.3333V266.667C300 275.507 296.488 283.986 290.237 290.237C283.986 296.488 275.507 300 266.667 300H33.3333C24.4928 300 16.0143 296.488 9.76311 290.237C3.51189 283.986 0 275.507 0 266.667V33.3333C0 24.4928 3.51189 16.0143 9.76311 9.76311C16.0143 3.51189 24.4928 0 33.3333 0H266.667ZM258.333 258.333V170C258.333 155.59 252.609 141.77 242.419 131.581C232.23 121.391 218.41 115.667 204 115.667C189.833 115.667 173.333 124.333 165.333 137.333V118.833H118.833V258.333H165.333V176.167C165.333 163.333 175.667 152.833 188.5 152.833C194.688 152.833 200.623 155.292 204.999 159.668C209.375 164.043 211.833 169.978 211.833 176.167V258.333H258.333ZM64.6667 92.6667C72.0927 92.6667 79.2146 89.7167 84.4657 84.4657C89.7167 79.2146 92.6667 72.0927 92.6667 64.6667C92.6667 49.1667 80.1667 36.5 64.6667 36.5C57.1964 36.5 50.0321 39.4675 44.7498 44.7498C39.4675 50.0321 36.5 57.1964 36.5 64.6667C36.5 80.1667 49.1667 92.6667 64.6667 92.6667ZM87.8333 258.333V118.833H41.6667V258.333H87.8333Z" fill="white"/>
</svg>
